:SAMPLES-PER-SECOND 30
:FRAME-RANGE 1-2009
:FULLY-SPECIFIED
:DEGREES
1382
root  -6.11688 39.4565 35.4706 -0.364377 67.2615 -3.56976
RightUpLeg  3.69514 -9.53997 -8.38119
RightLeg  4.28805 -10.1812 1.05789
RightFoot  -7.11945 -0.545652 13.4262
RightToes  4.71047e-010 1.2921e-014 -6.02303e-014
Spine  3.39693 -3.47383 1.2704
Spine1  5.09346 -3.99303 1.53263
HEad  6.58911 -27.8067 -5.02268
LeftShoulder1  1.52494 -0.705595 -30.1691
LeftArm  19.1559 14.4325 -33.7256
LeftForeArm  -1.51577 -19.1344 -7.99265
LeftHand  0.322092 -1.02904 -5.7523
RightShoulder  0.0832702 -3.25994 32.5976
RightArm  -12.3692 -5.80245 0.273738
RightForeArm  36.0567 1.92936 11.0847
RightHand  -0.37464 0.609006 -7.3421
LeftUpLeg  -17.6976 19.1043 3.43069
LeftLeg  5.55572 44.3235 -5.05836
LeftFoot  -2.61646 0.173109 -2.06311
LeftToes  2.15783e-011 -7.56106e-012 -8.20802e-012
1383
root  -5.24233 39.2753 35.3204 -1.67774 68.2208 -3.90735
RightUpLeg  5.6828 -10.2896 -9.64582
RightLeg  5.65548 -9.62183 0.828121
RightFoot  -8.46215 -0.437069 15.0098
RightToes  4.71047e-010 1.2921e-014 -6.02303e-014
Spine  3.45391 -3.54666 -0.469148
Spine1  5.02226 -4.02094 1.35126
HEad  7.98033 -23.8516 -4.7423
LeftShoulder1  1.52441 -0.661331 -30.5451
LeftArm  17.9754 13.4565 -33.0771
LeftForeArm  -0.532094 -17.6371 -9.36062
LeftHand  0.293869 -0.808006 -5.45252
RightShoulder  0.252686 -2.84686 34.126
RightArm  -11.4888 -5.53276 0.896123
RightForeArm  37.4209 2.23484 11.2272
RightHand  -0.420182 0.797973 -7.98946
LeftUpLeg  -17.1947 17.8428 3.02968
LeftLeg  7.37834 45.4204 -3.7082
LeftFoot  0.71865 -0.885439 8.32493
LeftToes  2.15783e-011 -7.56106e-012 -8.20802e-012
1384
root  -4.417 39.1374 35.0662 -0.591752 70.4775 -1.62122
RightUpLeg  6.52603 -12.6156 -12.0578
RightLeg  9.77787 -8.3136 -0.478182
RightFoot  -9.44503 -0.36153 17.805
RightToes  4.71047e-010 1.2921e-014 -6.02303e-014
Spine  3.96588 -3.77085 -3.5199
Spine1  4.92375 -4.58413 2.15462
HEad  8.59762 -21.1873 -3.98034
LeftShoulder1  1.56683 -0.673876 -31.4578
LeftArm  13.5498 10.0464 -32.147
LeftForeArm  3.19225 -13.2804 -12.7855
LeftHand  0.258569 -0.429897 -5.14612
RightShoulder  0.486452 -2.32346 36.1148
RightArm  -10.9085 -4.8942 2.36617
RightForeArm  33.5432 2.43114 11.7586
RightHand  -0.258961 -0.353506 -5.96767
LeftUpLeg  -18.5019 23.051 -1.29932
LeftLeg  13.6503 37.0581 2.13213
LeftFoot  -1.2285 -0.640809 7.31567
LeftToes  2.15783e-011 -7.56106e-012 -8.20802e-012
1385
root  -3.61898 39.0169 34.749 -0.12813 72.8886 -0.0083313
RightUpLeg  6.42304 -14.7581 -14.1719
RightLeg  15.7195 -6.67037 -2.18997
RightFoot  -9.30218 -0.473341 22.7271
RightToes  4.71047e-010 1.2921e-014 -6.02303e-014
Spine  4.35214 -3.73219 -4.7174
Spine1  5.12533 -4.50859 1.28831
HEad  9.51107 -19.6276 -4.00438
LeftShoulder1  1.69717 -0.941473 -32.1373
LeftArm  6.34541 4.60337 -31.9496
LeftForeArm  9.20019 -5.44078 -16.5444
LeftHand  0.221537 0.103622 -4.9204
RightShoulder  0.753585 -1.77134 38.0466
RightArm  -10.869 -4.98392 4.93377
RightForeArm  26.8389 2.1165 12.4162
RightHand  -0.134824 -0.580598 -3.20568
LeftUpLeg  -18.1192 24.0275 -3.49886
LeftLeg  16.4994 33.2558 4.50689
LeftFoot  -2.63919 -0.554214 7.48226
LeftToes  2.15783e-011 -7.56106e-012 -8.20802e-012
1386
root  -2.92313 38.8978 34.3813 0.205618 74.0604 0.959381
RightUpLeg  3.78425 -10.9506 -14.986
RightLeg  23.9746 -8.42185 -4.28814
RightFoot  -7.20009 -1.11691 28.927
RightToes  4.71047e-010 1.2921e-014 -6.02303e-014
Spine  4.58686 -3.12932 -5.05594
Spine1  5.16656 -3.66488 -0.607056
HEad  11.0799 -17.9772 -4.90747
LeftShoulder1  1.80639 -1.18428 -32.4927
LeftArm  4.77278 -0.398889 -33.1168
LeftForeArm  9.75421 -0.257296 -17.9921
LeftHand  0.184082 0.988543 -5.06243
RightShoulder  1.64328 0.0538459 40.2891
RightArm  -10.3941 -5.09314 7.54155
RightForeArm  25.3194 0.766058 12.8058
RightHand  -0.0829142 -0.404235 -1.89451
LeftUpLeg  -17.0752 20.6937 -3.35289
LeftLeg  19.0366 35.267 5.5493
LeftFoot  -4.62387 -0.372775 6.819
LeftToes  2.15783e-011 -7.56106e-012 -8.20802e-012
1387
root  -2.2306 38.8719 34.0045 0.777719 75.6755 1.87595
RightUpLeg  -1.05728 -5.89286 -14.9077
RightLeg  34.863 -10.5076 -8.01513
RightFoot  -1.4402 -2.35506 26.6187
RightToes  4.71047e-010 1.2921e-014 -6.02303e-014
Spine  4.89214 -2.84614 -6.3938
Spine1  4.86647 -3.58065 -0.456897
HEad  12.0232 -16.1064 -5.49004
LeftShoulder1  1.85356 -1.30734 -32.489
LeftArm  6.53445 -3.69425 -35.185
LeftForeArm  9.21101 1.33001 -18.4601
LeftHand  0.178099 1.25944 -5.27474
RightShoulder  3.31306 3.26712 42.731
RightArm  -7.99731 -3.7755 9.68778
RightForeArm  26.0436 -1.84866 13.6652
RightHand  -0.0571922 -0.196691 -1.2637
LeftUpLeg  -15.7432 16.8258 -3.54516
LeftLeg  19.8634 37.5233 5.88422
LeftFoot  -5.98099 -0.262398 6.36932
LeftToes  2.15783e-011 -7.56106e-012 -8.20802e-012
1388
root  -1.53117 38.8995 33.6333 0.430486 78.1146 2.11462
RightUpLeg  -5.8317 -1.8566 -14.2716
RightLeg  44.7912 -10.3058 -11.0557
RightFoot  7.43655 -2.21435 13.6445
RightToes  4.71047e-010 1.2921e-014 -6.02303e-014
Spine  5.60537 -2.76377 -7.68037
Spine1  4.45068 -3.83274 0.44985
HEad  12.1207 -14.8224 -5.47548
LeftShoulder1  1.92011 -1.52002 -32.1855
LeftArm  9.69319 -6.36007 -37.5946
LeftForeArm  8.81566 0.980142 -18.6706
LeftHand  0.21061 0.981166 -5.75902
RightShoulder  4.97688 6.0262 45.7169
RightArm  -6.496 -1.98324 11.5032
RightForeArm  29.1378 -2.45928 13.8661
RightHand  0.0141009 0.4494 0.232876
LeftUpLeg  -13.9284 14.0923 -4.01216
LeftLeg  19.6359 37.8414 5.56928
LeftFoot  -7.07711 -0.184734 6.10215
LeftToes  2.15783e-011 -7.56106e-012 -8.20802e-012
1389
root  -0.919423 38.8123 33.3088 0.533225 81.3674 2.73453
RightUpLeg  -9.18306 1.92067 -13.5429
RightLeg  51.8839 -6.94966 -9.75581
RightFoot  6.29298 -2.26038 14.7783
RightToes  4.71047e-010 1.2921e-014 -6.02303e-014
Spine  6.11767 -2.72412 -8.77247
Spine1  4.64912 -4.10527 0.614778
HEad  11.8517 -14.6921 -5.05629
LeftShoulder1  2.03333 -1.85306 -31.9265
LeftArm  15.7215 -9.46365 -40.1409
LeftForeArm  5.58353 -0.788696 -18.9263
LeftHand  0.216862 0.779492 -5.63246
RightShoulder  6.32047 7.84753 48.7882
RightArm  -3.90544 0.0984784 13.3781
RightForeArm  28.8269 -0.528502 14.2319
RightHand  0.000557528 0.450864 -0.0379314
LeftUpLeg  -12.9392 11.7538 -4.87156
LeftLeg  20.614 36.8697 6.1045
LeftFoot  -8.46872 -0.0905247 5.64052
LeftToes  2.15783e-011 -7.56106e-012 -8.20802e-012
1390
root  -0.293702 38.7491 32.979 0.511511 85.0876 3.01276
RightUpLeg  -12.3916 4.99692 -12.5385
RightLeg  57.0064 -3.92557 -6.91721
RightFoot  4.96435 -2.199 15.5024
RightToes  4.71047e-010 1.2921e-014 -6.02303e-014
Spine  6.49511 -2.71436 -9.4649
Spine1  4.48304 -4.32941 0.75262
HEad  12.0707 -15.4687 -4.44475
LeftShoulder1  2.12391 -2.1388 -31.6119
LeftArm  17.8561 -12.3889 -42.9548
LeftForeArm  5.41393 -1.56112 -18.8731
LeftHand  0.213873 0.501333 -5.19733
RightShoulder  7.32588 9.14748 50.7204
RightArm  1.46207 1.70943 16.0627
RightForeArm  25.1427 3.61945 14.3243
RightHand  -0.0435431 0.8928 -0.898177
LeftUpLeg  -11.8343 9.64909 -5.82478
LeftLeg  20.8183 35.3525 6.22979
LeftFoot  -9.6745 -0.0203144 5.3968
LeftToes  2.15783e-011 -7.56106e-012 -8.20802e-012
1391
root  0.382926 38.7387 32.6288 -10.9629 89.231 -8.31964
RightUpLeg  -15.4349 8.01609 -11.0508
RightLeg  60.4061 -3.11914 -6.4184
RightFoot  4.07166 -1.99677 14.8867
RightToes  4.71047e-010 1.2921e-014 -6.02303e-014
Spine  6.50852 -2.79897 -9.95841
Spine1  4.37542 -4.62291 1.25166
HEad  12.9471 -16.9769 -3.78524
LeftShoulder1  2.16952 -2.30062 -31.3487
LeftArm  18.5388 -14.9058 -45.8538
LeftForeArm  6.76661 -2.69151 -18.4959
LeftHand  0.20396 0.142147 -4.6226
RightShoulder  8.22902 10.4661 51.5728
RightArm  13.5929 2.71533 18.8259
RightForeArm  15.7837 10.849 12.6554
RightHand  -0.0518041 0.756781 -1.06102
LeftUpLeg  -10.3664 8.49272 -6.65834
LeftLeg  20.0567 32.5577 5.57943
LeftFoot  -10.73 0.0355788 5.43268
LeftToes  2.15783e-011 -7.56106e-012 -8.20802e-012
1392
root  1.10757 38.7769 32.2254 -172.065 86.3059 -169.221
RightUpLeg  -18.0976 10.7621 -9.35734
RightLeg  61.8895 -3.80162 -8.20195
RightFoot  3.15095 -1.66644 13.223
RightToes  4.71047e-010 1.2921e-014 -6.02303e-014
Spine  6.45812 -2.96355 -9.92994
Spine1  4.22714 -4.87378 1.66136
HEad  14.1377 -19.0041 -3.06999
LeftShoulder1  2.19801 -2.44334 -30.9292
LeftArm  19.6337 -16.8702 -48.8834
LeftForeArm  8.31609 -4.55775 -17.7974
LeftHand  0.198018 -0.133864 -4.18
RightShoulder  8.95539 11.6497 51.7313
RightArm  30.3465 3.33473 20.9039
RightForeArm  2.97009 19.5052 7.15401
RightHand  -0.0462284 0.0490841 -0.998848
LeftUpLeg  -8.31735 7.99034 -7.09805
LeftLeg  18.6378 28.8432 4.22148
LeftFoot  -11.7167 0.0889291 5.61894
LeftToes  2.15783e-011 -7.56106e-012 -8.20802e-012
1393
root  1.85589 38.8154 31.7653 -173.391 81.6006 -170.305
RightUpLeg  -20.4834 12.4893 -7.76166
RightLeg  61.4768 -5.04972 -10.4798
RightFoot  1.5015 -1.30582 11.6568
RightToes  4.71047e-010 1.2921e-014 -6.02303e-014
Spine  6.32581 -3.24531 -9.57285
Spine1  4.16508 -5.17454 2.15279
HEad  15.1898 -21.7478 -2.21601
LeftShoulder1  2.23341 -2.63262 -30.3619
LeftArm  20.8721 -18.5095 -51.9736
LeftForeArm  9.95814 -6.45351 -16.9418
LeftHand  0.20599 -0.678788 -3.89477
RightShoulder  9.45355 12.6482 51.2376
RightArm  32.8752 4.71335 22.1736
RightForeArm  6.01469 24.1178 4.84789
RightHand  -0.0511721 0.575613 -1.06206
LeftUpLeg  -5.93603 7.46902 -7.38785
LeftLeg  16.9467 25.1864 3.05339
LeftFoot  -12.6189 0.143575 6.06098
LeftToes  2.15783e-011 -7.56106e-012 -8.20802e-012
1394
root  2.58141 38.8677 31.251 -174.487 76.7632 -171.189
RightUpLeg  -22.59 13.0463 -6.44517
RightLeg  59.0981 -6.50132 -12.0149
RightFoot  0.582421 -0.996923 9.56321
RightToes  4.71047e-010 1.2921e-014 -6.02303e-014
Spine  6.20768 -3.57163 -9.18773
Spine1  4.19429 -5.48885 2.7917
HEad  15.9751 -25.0947 -1.18768
LeftShoulder1  2.27544 -2.82871 -29.894
LeftArm  24.7986 -19.9893 -54.6432
LeftForeArm  8.85737 -9.27989 -15.7119
LeftHand  0.218252 -1.13761 -3.79135
RightShoulder  9.85176 13.5993 50.4309
RightArm  29.2949 5.81897 22.1212
RightForeArm  13.1098 28.9973 5.5734
RightHand  -0.0285782 0.662177 -0.6203
LeftUpLeg  -3.36081 6.79733 -7.69893
LeftLeg  15.0121 21.4231 1.99855
LeftFoot  -13.2329 0.185496 6.40561
LeftToes  2.15783e-011 -7.56106e-012 -8.20802e-012
1395
root  3.30872 38.873 30.7036 -175.584 71.8567 -172.037
RightUpLeg  -24.0966 12.7069 -5.29572
RightLeg  54.5086 -7.87448 -12.0549
RightFoot  -0.457605 -0.950083 9.91659
RightToes  4.71047e-010 1.2921e-014 -6.02303e-014
Spine  6.14768 -3.88271 -8.81674
Spine1  4.25016 -5.75524 3.26163
HEad  16.7338 -28.7597 -0.13912
LeftShoulder1  2.31523 -2.99412 -29.588
LeftArm  28.6792 -21.205 -56.8126
LeftForeArm  7.15381 -11.9276 -14.2395
LeftHand  0.21442 -1.34754 -3.5855
RightShoulder  10.0742 14.3199 49.4837
RightArm  26.876 6.90463 21.5888
RightForeArm  15.6679 32.9729 6.40776
RightHand  -0.01304 0.608655 -0.318065
LeftUpLeg  -0.844612 6.2048 -7.9992
LeftLeg  13.6547 17.568 1.35015
LeftFoot  -13.9141 0.243333 7.0969
LeftToes  2.15783e-011 -7.56106e-012 -8.20802e-012
